<?xml version="1.0" encoding="UTF-8"?>
<svg width="368px" height="339px" viewBox="0 0 368 339" version="1.1" xmlns="http://www.w3.org/2000/svg" xmlns:xlink="http://www.w3.org/1999/xlink">
    <!-- Generator: Sketch 42 (36781) - http://www.bohemiancoding.com/sketch -->
    <title>cheaper</title>
    <desc>Created with Sketch.</desc>
    <defs></defs>
    <g id="Homepage" stroke="none" stroke-width="1" fill="none" fill-rule="evenodd">
        <g id="Homepage-1280" transform="translate(-250.000000, -2361.000000)">
            <g id="cheaper" transform="translate(250.000000, 2361.000000)">
                <path d="M56.5031384,168.30573 C-22.9404557,125.498107 154.237572,16.3272324 220.954629,33.3975505 C250.975856,41.078823 261.745706,55.2026424 277.265937,98.5948231 C292.786168,141.987004 402.634548,130.689949 356.049904,191.704207 C338.65299,214.489823 297.883796,230.221134 262.243921,272.936875 C226.604046,315.652616 226.910593,342.694346 176.721649,337.518321 C96.6183274,329.257204 135.946733,211.113352 56.5031384,168.30573 Z" id="Rectangle-14" fill="#F8FCFF"></path>
                <g id="Group-48">
                    <g id="Group-12" transform="translate(0.000000, 86.186441)">
                        <path d="M9.49928016,126.628086 C4.78131294,123.75489 0.956644831,116.957752 0.956644831,111.421149 L0.956644831,102.471193 L158.245134,19.1580571 C168.008887,13.986357 183.918535,13.8357622 193.772783,18.8178799 L355.237351,100.451253 L355.237351,111.429908 C355.237351,116.950434 351.388308,123.712922 346.649104,126.529099 L198.271578,214.699481 C185.929337,222.033611 165.983942,221.925717 153.719862,214.457012 L9.49928016,126.628086 Z" id="Rectangle-Copy" fill="#494E52"></path>
                        <path d="M10.8660133,115.628731 C-2.45166253,107.768972 -2.32814296,95.2281108 11.1307848,87.6242153 L158.223558,4.5211553 C167.838758,-0.911148015 183.474581,-0.977911532 193.13961,4.36786704 L345.022831,88.3752772 C358.55829,95.8618105 358.655751,108.153145 345.23125,115.834044 L198.207833,199.954263 C185.740328,207.087612 165.611703,206.955768 153.247873,199.658944 L10.8660133,115.628731 Z" id="Rectangle" fill="#6D7479"></path>
                    </g>
                    <g id="Group-47" transform="translate(100.428198, 0.000000)">
                        <g id="Group-46-Copy-2" transform="translate(80.836435, 104.390230)">
                            <path d="M39.8421943,42.12393 C38.4146988,42.9577941 37.257485,44.9868503 37.257485,46.6328432 L37.257485,78.6525648 C37.257485,80.3089047 38.4198181,80.9726626 39.8421943,80.1417889 L70.2145947,62.3999085 C71.6420902,61.5660444 72.7993039,59.5369882 72.7993039,57.8909953 L72.7993039,25.8712737 C72.7993039,24.2149338 71.6369708,23.5511759 70.2145947,24.3820496 L39.8421943,42.12393 Z" id="Combined-Shape" fill="#989898"></path>
                            <path d="M2.59513769,24.263896 C1.16188272,23.4258654 0,24.0995832 0,25.7455761 L0,57.7652977 C0,59.4216376 1.15593691,61.4402478 2.59513769,62.2817549 L31.5589129,79.2170025 C32.9921678,80.0550331 34.1540506,79.3813153 34.1540506,77.7353223 L34.1540506,45.7156008 C34.1540506,44.0592609 32.9981136,42.0406507 31.5589129,41.1991436 L2.59513769,24.263896 Z" id="Combined-Shape" fill="#D0D8DC"></path>
                            <path d="M40.2294535,1.53414807 C38.8056827,0.686861487 36.4922958,0.679263652 35.065712,1.51521319 L4.48251906,19.436352 C3.0544342,20.2731811 3.05175682,21.6424495 4.47578731,22.494249 L33.4444842,39.8221922 C34.8688512,40.6741929 37.1762781,40.6783917 38.6092698,39.8250177 L68.993793,21.730452 C70.4218582,20.8800118 70.4312461,19.5072472 69.0015688,18.6564457 L40.2294535,1.53414807 Z" id="Combined-Shape" fill="#E6E6E6"></path>
                        </g>
                        <g id="Group-46-Copy-3" transform="translate(80.836435, 52.195115)">
                            <path d="M40.5736933,41.3487039 C39.1461978,42.182568 37.9889841,44.2116242 37.9889841,45.8576171 L37.9889841,77.8773387 C37.9889841,79.5336786 39.1513171,80.1974365 40.5736933,79.3665628 L70.9460937,61.6246824 C72.3735892,60.7908183 73.530803,58.7617621 73.530803,57.1157692 L73.530803,25.0960476 C73.530803,23.4397077 72.3684699,22.7759498 70.9460937,23.6068235 L40.5736933,41.3487039 Z" id="Combined-Shape" fill="#989898"></path>
                            <path d="M2.59513769,24.263896 C1.16188272,23.4258654 0,24.0995832 0,25.7455761 L0,57.7652977 C0,59.4216376 1.15593691,61.4402478 2.59513769,62.2817549 L31.5589129,79.2170025 C32.9921678,80.0550331 34.1540506,79.3813153 34.1540506,77.7353223 L34.1540506,45.7156008 C34.1540506,44.0592609 32.9981136,42.0406507 31.5589129,41.1991436 L2.59513769,24.263896 Z" id="Combined-Shape" fill="#D0D8DC"></path>
                            <path d="M40.2294535,1.53414807 C38.8056827,0.686861487 36.4922958,0.679263652 35.065712,1.51521319 L4.48251906,19.436352 C3.0544342,20.2731811 3.05175682,21.6424495 4.47578731,22.494249 L33.4444842,39.8221922 C34.8688512,40.6741929 37.1762781,40.6783917 38.6092698,39.8250177 L68.993793,21.730452 C70.4218582,20.8800118 70.4312461,19.5072472 69.0015688,18.6564457 L40.2294535,1.53414807 Z" id="Combined-Shape" fill="#E6E6E6"></path>
                        </g>
                        <g id="Group-46-Copy-4" transform="translate(80.836435, 0.000000)">
                            <path d="M40.5736933,41.3487039 C39.1461978,42.182568 37.9889841,44.2116242 37.9889841,45.8576171 L37.9889841,77.8773387 C37.9889841,79.5336786 39.1513171,80.1974365 40.5736933,79.3665628 L70.9460937,61.6246824 C72.3735892,60.7908183 73.530803,58.7617621 73.530803,57.1157692 L73.530803,25.0960476 C73.530803,23.4397077 72.3684699,22.7759498 70.9460937,23.6068235 L40.5736933,41.3487039 Z" id="Combined-Shape" fill="#989898"></path>
                            <path d="M2.59513769,24.263896 C1.16188272,23.4258654 0,24.0995832 0,25.7455761 L0,57.7652977 C0,59.4216376 1.15593691,61.4402478 2.59513769,62.2817549 L31.5589129,79.2170025 C32.9921678,80.0550331 34.1540506,79.3813153 34.1540506,77.7353223 L34.1540506,45.7156008 C34.1540506,44.0592609 32.9981136,42.0406507 31.5589129,41.1991436 L2.59513769,24.263896 Z" id="Combined-Shape" fill="#D0D8DC"></path>
                            <path d="M40.2294535,1.53414807 C38.8056827,0.686861487 36.4922958,0.679263652 35.065712,1.51521319 L4.48251906,19.436352 C3.0544342,20.2731811 3.05175682,21.6424495 4.47578731,22.494249 L33.4444842,39.8221922 C34.8688512,40.6741929 37.1762781,40.6783917 38.6092698,39.8250177 L68.993793,21.730452 C70.4218582,20.8800118 70.4312461,19.5072472 69.0015688,18.6564457 L40.2294535,1.53414807 Z" id="Combined-Shape" fill="#E6E6E6"></path>
                        </g>
                        <g id="Group-46-Copy-5" transform="translate(0.000000, 144.670097)">
                            <path d="M40.5736933,41.3487039 C39.1461978,42.182568 37.9889841,44.2116242 37.9889841,45.8576171 L37.9889841,77.8773387 C37.9889841,79.5336786 39.1513171,80.1974365 40.5736933,79.3665628 L70.9460937,61.6246824 C72.3735892,60.7908183 73.530803,58.7617621 73.530803,57.1157692 L73.530803,25.0960476 C73.530803,23.4397077 72.3684699,22.7759498 70.9460937,23.6068235 L40.5736933,41.3487039 Z" id="Combined-Shape" fill="#42A5F5"></path>
                            <path d="M2.59513769,24.263896 C1.16188272,23.4258654 0,24.0995832 0,25.7455761 L0,57.7652977 C0,59.4216376 1.15593691,61.4402478 2.59513769,62.2817549 L31.5589129,79.2170025 C32.9921678,80.0550331 34.1540506,79.3813153 34.1540506,77.7353223 L34.1540506,45.7156008 C34.1540506,44.0592609 32.9981136,42.0406507 31.5589129,41.1991436 L2.59513769,24.263896 Z" id="Combined-Shape" fill="#D0D8DC"></path>
                            <path d="M40.2294535,1.53414807 C38.8056827,0.686861487 36.4922958,0.679263652 35.065712,1.51521319 L4.48251906,19.436352 C3.0544342,20.2731811 3.05175682,21.6424495 4.47578731,22.494249 L33.4444842,39.8221922 C34.8688512,40.6741929 37.1762781,40.6783917 38.6092698,39.8250177 L68.993793,21.730452 C70.4218582,20.8800118 70.4312461,19.5072472 69.0015688,18.6564457 L40.2294535,1.53414807 Z" id="Combined-Shape" fill="#E5E5E5"></path>
                        </g>
                        <path d="M75.3277484,245.052038 C73.9002529,245.885902 71.5882898,245.877022 70.1689471,245.035235 L40.3108969,227.326961 C38.8892652,226.483817 38.899138,225.121342 40.3215142,224.290469 L70.6939146,206.548588 C72.1214101,205.714724 74.4333731,205.723605 75.8527158,206.565392 L105.710766,224.273665 C107.132398,225.11681 107.122525,226.479284 105.700149,227.310158 L75.3277484,245.052038 Z" id="Combined-Shape" fill="#5A5E61"></path>
                        <path d="M155.879678,204.831699 C154.452183,205.665563 152.14022,205.656683 150.720877,204.814896 L120.862827,187.106622 C119.441195,186.263478 119.451068,184.901003 120.873444,184.07013 L151.245845,166.328249 C152.67334,165.494385 154.985303,165.503266 156.404646,166.345053 L186.262696,184.053327 C187.684328,184.896471 187.674455,186.258945 186.252079,187.089819 L155.879678,204.831699 Z" id="Combined-Shape-Copy-10" fill="#5A5E61"></path>
                        <path d="M196.690673,228.772377 C195.263177,229.606241 192.951214,229.597361 191.531871,228.755574 L161.673821,211.0473 C160.252189,210.204156 160.262062,208.841681 161.684439,208.010808 L192.056839,190.268927 C193.484334,189.435063 195.796297,189.443944 197.21564,190.28573 L227.07369,207.994004 C228.495322,208.837149 228.485449,210.199623 227.063073,211.030497 L196.690673,228.772377 Z" id="Combined-Shape-Copy-11" fill="#5A5E61"></path>
                    </g>
                </g>
            </g>
        </g>
    </g>
</svg>