<?xml version="1.0" encoding="utf-8"?>
<!-- Generator: Adobe Illustrator 19.2.1, SVG Export Plug-In . SVG Version: 6.00 Build 0)  -->

<svg width="710px" height="855px" viewBox="0 0 710 855" version="1.1" xmlns="http://www.w3.org/2000/svg" xmlns:xlink="http://www.w3.org/1999/xlink">
    <!-- Generator: Sketch 50.2 (55047) - http://www.bohemiancoding.com/sketch -->
    <desc>Created with Sketch.</desc>
    <defs></defs>
    <g id="Symbols" stroke="none" stroke-width="1" fill="none" fill-rule="evenodd">
        <rect id="Rectangle-4" fill-opacity="0" fill="#D8D8D8" x="0" y="0" width="710" height="855"></rect>
        <path d="M73.6388416,63 L73.6388416,790 L642.408859,790 L642.408859,63 L73.6388416,63 Z M489.56703,329.101517 C572.246545,373.83686 624.638842,453.054042 624.638842,540.85085 C624.638842,679.089921 496.110999,790 338.772281,790 C281.696324,790 253.684655,787.933135 226.504925,779.860617 C193.98651,770.202484 168.069165,751.880224 142.095157,720.084256 C140.912381,718.636366 141.833522,720.290399 140.125734,717.121227 C140.060863,717.000845 139.985766,716.859764 139.893017,716.684398 C139.733506,716.382801 139.50898,715.955457 139.215338,715.394665 C138.641947,714.299614 137.79545,712.677418 136.673689,710.523971 C134.437356,706.230877 131.10181,699.816374 126.665945,691.278343 L124.638842,687.376629 L124.638842,83.4350018 L142.58457,83.380894 C226.802714,83.1269692 290.130227,83 332.57374,83 C409.636601,83 399.485633,82.9401564 403.789804,84.6426734 C444.736916,100.839323 470.873647,114.64939 491.092817,132.955582 C516.549369,156.003635 529.680589,184.879268 529.680589,221.500051 C529.680589,260.953869 515.312399,298.348842 489.567017,329.101533 Z" id="Combined-Shape" stroke="#000000" stroke-width="36" fill="#053E61"></path>
        <path d="M385.530184,92.3808122 C451.095459,118.315188 500.041748,146.188709 500.041748,212.500051 C500.041748,256.260229 480.208781,296.023127 447.876292,325.460521 C535.159706,363.559063 595,441.674632 595,531.85085 C595,659.511001 475.072056,763 327.13344,763 C236.584598,763 192.881254,759.049325 144.396325,699.696714 C144.331697,699.6176 139.866255,691.04528 131,673.979754 L131,92.3808122 C299.403136,91.8730626 384.246531,91.8730626 385.530184,92.3808122 Z" id="Path-Copy" fill="#FFFFFF"></path>
    </g>
</svg>