<?xml version="1.0" encoding="UTF-8"?>
<svg width="122px" height="126px" viewBox="0 0 122 126" version="1.1" xmlns="http://www.w3.org/2000/svg" xmlns:xlink="http://www.w3.org/1999/xlink">
    <!-- Generator: Sketch 42 (36781) - http://www.bohemiancoding.com/sketch -->
    <title>network</title>
    <desc>Created with Sketch.</desc>
    <defs></defs>
    <g id="Technology" stroke="none" stroke-width="1" fill="none" fill-rule="evenodd">
        <g id="Technology-1280" transform="translate(-579.000000, -1249.000000)">
            <g id="network" transform="translate(581.000000, 1249.000000)">
                <circle id="Oval-4" stroke="#42A5F5" stroke-width="5" cx="59" cy="113" r="10"></circle>
                <circle id="Oval-4" stroke="#42A5F5" stroke-width="5" transform="translate(59.000000, 17.000000) scale(1, -1) translate(-59.000000, -17.000000) " cx="59" cy="17" r="10"></circle>
                <circle id="Oval-4" stroke="#42A5F5" stroke-width="5" transform="translate(11.000000, 65.000000) rotate(90.000000) translate(-11.000000, -65.000000) " cx="11" cy="65" r="10"></circle>
                <circle id="Oval-4" stroke="#42A5F5" stroke-width="5" fill="#E8F5FF" transform="translate(25.000000, 99.000000) rotate(45.000000) translate(-25.000000, -99.000000) " cx="25" cy="99" r="10"></circle>
                <circle id="Oval-4" stroke="#42A5F5" stroke-width="5" fill="#E8F5FF" transform="translate(25.000000, 31.000000) scale(1, -1) rotate(45.000000) translate(-25.000000, -31.000000) " cx="25" cy="31" r="10"></circle>
                <circle id="Oval-4" stroke="#42A5F5" stroke-width="5" transform="translate(107.000000, 65.000000) scale(-1, 1) rotate(90.000000) translate(-107.000000, -65.000000) " cx="107" cy="65" r="10"></circle>
                <circle id="Oval-4" stroke="#42A5F5" stroke-width="5" fill="#E8F5FF" transform="translate(93.000000, 99.000000) scale(-1, 1) rotate(45.000000) translate(-93.000000, -99.000000) " cx="93" cy="99" r="10"></circle>
                <circle id="Oval-4" stroke="#42A5F5" stroke-width="5" fill="#E8F5FF" transform="translate(93.000000, 31.000000) scale(-1, -1) rotate(45.000000) translate(-93.000000, -31.000000) " cx="93" cy="31" r="10"></circle>
                <g id="Group-11">
                    <g id="Group-9" transform="translate(49.000000, 72.000000)" stroke="#42A5F5" stroke-width="5">
                        <path d="M9.70588235,0.297510625 L9.70588235,26.4784457" id="Line" stroke-linecap="square"></path>
                        <circle id="Oval-4" fill="#E8F5FF" cx="10" cy="38" r="10"></circle>
                    </g>
                    <g id="Group-9" transform="translate(59.000000, 28.000000) scale(1, -1) translate(-59.000000, -28.000000) translate(49.000000, 4.000000)" stroke="#42A5F5" stroke-width="5">
                        <path d="M9.70588235,0.297510625 L9.70588235,26.4784457" id="Line" stroke-linecap="square"></path>
                        <circle id="Oval-4" fill="#E8F5FF" cx="10" cy="38" r="10"></circle>
                    </g>
                    <g id="Group-9" transform="translate(25.000000, 62.000000) rotate(90.000000) translate(-25.000000, -62.000000) translate(15.000000, 38.000000)" stroke="#42A5F5" stroke-width="5">
                        <path d="M9.70588235,0.297510625 L9.70588235,26.4784457" id="Line" stroke-linecap="square"></path>
                        <circle id="Oval-4" fill="#E8F5FF" cx="10" cy="38" r="10"></circle>
                    </g>
                    <g id="Group-9" transform="translate(34.748737, 86.041631) rotate(45.000000) translate(-34.748737, -86.041631) translate(24.748737, 62.041631)" stroke="#42A5F5" stroke-width="5">
                        <path d="M9.70588235,0.297510625 L9.70588235,26.4784457" id="Line" stroke-linecap="square"></path>
                        <circle id="Oval-4" fill="#E8F5FF" cx="10" cy="38" r="10"></circle>
                    </g>
                    <g id="Group-9" transform="translate(34.748737, 37.748737) scale(1, -1) rotate(45.000000) translate(-34.748737, -37.748737) translate(24.748737, 13.748737)" stroke="#42A5F5" stroke-width="5">
                        <path d="M9.70588235,0.297510625 L9.70588235,26.4784457" id="Line" stroke-linecap="square"></path>
                        <circle id="Oval-4" fill="#E8F5FF" cx="10" cy="38" r="10"></circle>
                    </g>
                    <g id="Group-10" transform="translate(88.000000, 62.000000) scale(-1, 1) translate(-88.000000, -62.000000) translate(59.000000, 13.000000)" stroke="#42A5F5" stroke-width="5">
                        <g id="Group-9" transform="translate(24.000000, 49.000000) rotate(90.000000) translate(-24.000000, -49.000000) translate(14.000000, 25.000000)">
                            <path d="M9.70588235,0.297510625 L9.70588235,26.4784457" id="Line" stroke-linecap="square"></path>
                            <circle id="Oval-4" fill="#E8F5FF" cx="10" cy="38" r="10"></circle>
                        </g>
                        <g id="Group-9" transform="translate(33.748737, 73.041631) rotate(45.000000) translate(-33.748737, -73.041631) translate(23.748737, 49.041631)">
                            <path d="M9.70588235,0.297510625 L9.70588235,26.4784457" id="Line" stroke-linecap="square"></path>
                            <circle id="Oval-4" fill="#E8F5FF" cx="10" cy="38" r="10"></circle>
                        </g>
                        <g id="Group-9" transform="translate(33.748737, 24.748737) scale(1, -1) rotate(45.000000) translate(-33.748737, -24.748737) translate(23.748737, 0.748737)">
                            <path d="M9.70588235,0.297510625 L9.70588235,26.4784457" id="Line" stroke-linecap="square"></path>
                            <circle id="Oval-4" fill="#E8F5FF" cx="10" cy="38" r="10"></circle>
                        </g>
                    </g>
                    <circle id="Oval-5" fill="#42A5F5" cx="80.5" cy="3.5" r="3.5"></circle>
                    <circle id="Oval-5-Copy-4" fill="#42A5F5" cx="81.5" cy="111.5" r="3.5"></circle>
                    <circle id="Oval-5-Copy" fill="#42A5F5" cx="37.5" cy="3.5" r="3.5"></circle>
                    <circle id="Oval-5-Copy-5" fill="#42A5F5" cx="36.5" cy="111.5" r="3.5"></circle>
                    <circle id="Oval-5-Copy-2" fill="#42A5F5" cx="3.5" cy="40.5" r="3.5"></circle>
                    <circle id="Oval-5-Copy-6" fill="#42A5F5" cx="114.5" cy="40.5" r="3.5"></circle>
                    <circle id="Oval-5-Copy-3" fill="#42A5F5" cx="3.5" cy="82.5" r="3.5"></circle>
                    <circle id="Oval-5-Copy-7" fill="#42A5F5" cx="114.5" cy="82.5" r="3.5"></circle>
                </g>
            </g>
        </g>
    </g>
</svg>