<?xml version="1.0" encoding="UTF-8"?>
<svg width="311px" height="106px" viewBox="0 0 311 106" version="1.1" xmlns="http://www.w3.org/2000/svg" xmlns:xlink="http://www.w3.org/1999/xlink">
    <!-- Generator: Sketch 42 (36781) - http://www.bohemiancoding.com/sketch -->
    <title>payments</title>
    <desc>Created with Sketch.</desc>
    <defs></defs>
    <g id="Technology" stroke="none" stroke-width="1" fill="none" fill-rule="evenodd">
        <g id="Technology-1280" transform="translate(-486.000000, -2642.000000)">
            <g id="payments" transform="translate(486.000000, 2645.000000)">
                <g id="Group-15" transform="translate(83.000000, 0.000000)" stroke="#42A5F5">
                    <rect id="Rectangle-6" stroke-width="5" fill="#42A5F5" x="0" y="7" width="135" height="93"></rect>
                    <rect id="Rectangle-6" stroke-width="5" fill="#E8F5FF" x="0" y="0" width="135" height="93"></rect>
                    <path d="M74,50 L109,50" id="Line-Copy-21" stroke-width="3" stroke-linecap="round" transform="translate(91.500000, 50.000000) scale(-1, -1) translate(-91.500000, -50.000000) "></path>
                    <polyline id="Line-Copy-22" stroke-width="3" stroke-linecap="round" transform="translate(84.735161, 70.650233) scale(-1, -1) translate(-84.735161, -70.650233) " points="36.4703215 68.3004651 71.4703215 68.3004651 78.5405832 75.2293325 108.65416 75.3740742 115.07835 65.926391 133 65.926391"></polyline>
                    <circle id="Oval-7" stroke-width="3" cx="72" cy="23" r="4"></circle>
                    <polyline id="Line" stroke-width="3" stroke-linecap="round" points="3 32.1624643 38 32.1624643 45.1523437 23 67.5 23"></polyline>
                    <path d="M3,52.1624643 L38,52.1624643" id="Line-Copy-19" stroke-width="3" stroke-linecap="round"></path>
                    <circle id="Oval-7" stroke-width="3" cx="42" cy="52" r="4"></circle>
                    <path d="M18,42.1624643 L53,42.1624643" id="Line-Copy-19" stroke-width="3" stroke-linecap="round"></path>
                    <circle id="Oval-7" stroke-width="3" cx="57" cy="42" r="4"></circle>
                    <path d="M3,42.1624643 L38,42.1624643 L45.1523437,33 L67.5,33 C67.5,33 73.8150358,40.1602374 73.8150358,40.1602374 C73.8150358,40.1602374 91.0439711,40.1023877 91.0439711,40.1023877" id="Line-Copy-11" stroke-width="3" stroke-linecap="round"></path>
                    <path d="M2,68.1624643 L37,68.1624643 L44.1523437,59 L66.5,59 C66.5,59 72.8150358,66.1602374 72.8150358,66.1602374 C72.8150358,66.1602374 90.0439711,66.1023877 90.0439711,66.1023877" id="Line-Copy-20" stroke-width="3" stroke-linecap="round" transform="translate(46.021986, 63.581232) scale(-1, -1) translate(-46.021986, -63.581232) "></path>
                    <rect id="Rectangle-6" stroke-width="5" fill="#E8F5FF" x="98" y="32" width="45" height="29"></rect>
                    <rect id="Rectangle-6" stroke-width="5" fill="#E8F5FF" x="98" y="28" width="45" height="29"></rect>
                    <circle id="Oval-6" stroke-width="5" cx="114" cy="43" r="5"></circle>
                </g>
                <path d="M33.5,48 L75,48" id="Line-Copy-19" stroke="#42A5F5" stroke-width="3" stroke-linecap="round" stroke-dasharray="6,9"></path>
                <path d="M235.5,47 L274.5,47" id="Line-Copy-23" stroke="#42A5F5" stroke-width="3" stroke-linecap="round" stroke-dasharray="6,9"></path>
                <circle id="Oval-12" fill="#42A5F5" cx="10" cy="49" r="10"></circle>
                <circle id="Oval-12-Copy" stroke="#42A5F5" stroke-width="5" fill="#E8F5FF" cx="298" cy="47" r="10"></circle>
            </g>
        </g>
    </g>
</svg>