<?xml version="1.0" encoding="UTF-8"?>
<svg width="342px" height="336px" viewBox="0 0 342 336" version="1.1" xmlns="http://www.w3.org/2000/svg" xmlns:xlink="http://www.w3.org/1999/xlink">
    <!-- Generator: Sketch 42 (36781) - http://www.bohemiancoding.com/sketch -->
    <title>technology_foreground</title>
    <desc>Created with Sketch.</desc>
    <defs>
        <filter x="-50%" y="-50%" width="200%" height="200%" filterUnits="objectBoundingBox" id="filter-1">
            <feOffset dx="-6" dy="6" in="SourceAlpha" result="shadowOffsetOuter1"></feOffset>
            <feColorMatrix values="0 0 0 0 0   0 0 0 0 0   0 0 0 0 0  0 0 0 0.28125 0" type="matrix" in="shadowOffsetOuter1" result="shadowMatrixOuter1"></feColorMatrix>
            <feMerge>
                <feMergeNode in="shadowMatrixOuter1"></feMergeNode>
                <feMergeNode in="SourceGraphic"></feMergeNode>
            </feMerge>
        </filter>
    </defs>
    <g id="Technology" stroke="none" stroke-width="1" fill="none" fill-rule="evenodd">
        <g id="Technology-1280" transform="translate(-792.000000, -151.000000)">
            <g id="technology_foreground" filter="url(#filter-1)" transform="translate(798.000000, 151.000000)">
                <path d="M61.5,61.5 L181.5,86.5" id="Line" stroke="#FAFAFA" stroke-width="3" stroke-linecap="square"></path>
                <path d="M170.5,19.5 L184.5,83.5" id="Line" stroke="#FAFAFA" stroke-width="3" stroke-linecap="square"></path>
                <path d="M268.5,59.5 L184.5,83.5" id="Line" stroke="#FAFAFA" stroke-width="3" stroke-linecap="square"></path>
                <path d="M187.5,92.5 L240.5,162.5" id="Line" stroke="#FAFAFA" stroke-width="3" stroke-linecap="square"></path>
                <path d="M187.5,92.5 L131.5,187.5" id="Line" stroke="#FAFAFA" stroke-width="3" stroke-linecap="square"></path>
                <path d="M58.5,62.5 L126.5,189.5" id="Line" stroke="#FAFAFA" stroke-width="3" stroke-linecap="square"></path>
                <path d="M20.5,160.5 L127.5,191.5" id="Line" stroke="#FAFAFA" stroke-width="3" stroke-linecap="square"></path>
                <path d="M66.5,266.5 L127.5,191.5" id="Line" stroke="#FAFAFA" stroke-width="3" stroke-linecap="square"></path>
                <path d="M236.5,164.5 L131.5,187.5" id="Line" stroke="#FAFAFA" stroke-width="3" stroke-linecap="square"></path>
                <path d="M167.5,311.5 L131.5,187.5" id="Line" stroke="#FAFAFA" stroke-width="3" stroke-linecap="square"></path>
                <path d="M167.5,311.5 L240.5,172.5" id="Line" stroke="#FAFAFA" stroke-width="3" stroke-linecap="square"></path>
                <path d="M273.5,271.5 L240.5,172.5" id="Line" stroke="#FAFAFA" stroke-width="3" stroke-linecap="square"></path>
                <path d="M321.5,162.5 L240.5,162.5" id="Line" stroke="#FAFAFA" stroke-width="3" stroke-linecap="square"></path>
                <path d="M274.5,69.5 L239.5,162.5" id="Line" stroke="#FAFAFA" stroke-width="3" stroke-linecap="square"></path>
                <polygon id="Polygon" stroke="#FAFAFA" stroke-width="3" stroke-linecap="round" stroke-linejoin="round" points="167.5 13 274.626677 57.5197693 319 165 274.626677 272.480231 167.5 317 60.3733227 272.480231 16 165 60.3733227 57.5197693"></polygon>
                <circle id="Oval" fill="#FAFAFA" cx="167.5" cy="13.5" r="13.5"></circle>
                <circle id="Oval-Copy-5" fill="#FAFAFA" cx="277.5" cy="58.5" r="13.5"></circle>
                <circle id="Oval-Copy" fill="#FAFAFA" cx="322.5" cy="164.5" r="13.5"></circle>
                <circle id="Oval-Copy-4" fill="#FAFAFA" cx="187.5" cy="87.5" r="13.5"></circle>
                <circle id="Oval-Copy-4" fill="#FAFAFA" cx="238.5" cy="164.5" r="13.5"></circle>
                <circle id="Oval-Copy-4" fill="#FAFAFA" cx="126.5" cy="191.5" r="13.5"></circle>
                <circle id="Oval-Copy-2" fill="#FAFAFA" cx="271.5" cy="271.5" r="13.5"></circle>
                <circle id="Oval-Copy" fill="#FAFAFA" transform="translate(13.500000, 162.500000) scale(-1, 1) translate(-13.500000, -162.500000) " cx="13.5" cy="162.5" r="13.5"></circle>
                <circle id="Oval-Copy-4" fill="#FAFAFA" transform="translate(58.500000, 58.500000) scale(-1, 1) translate(-58.500000, -58.500000) " cx="58.5" cy="58.5" r="13.5"></circle>
                <circle id="Oval-Copy-2" fill="#FAFAFA" transform="translate(64.500000, 269.500000) scale(-1, 1) translate(-64.500000, -269.500000) " cx="64.5" cy="269.5" r="13.5"></circle>
                <circle id="Oval-Copy-3" fill="#FAFAFA" cx="167.5" cy="316.5" r="13.5"></circle>
            </g>
        </g>
    </g>
</svg>