<?xml version="1.0" encoding="UTF-8"?>
<svg width="1279px" height="432px" viewBox="0 0 1279 432" version="1.1" xmlns="http://www.w3.org/2000/svg" xmlns:xlink="http://www.w3.org/1999/xlink">
    <!-- Generator: Sketch 42 (36781) - http://www.bohemiancoding.com/sketch -->
    <title>technology_background</title>
    <desc>Created with Sketch.</desc>
    <defs></defs>
    <g id="Technology" stroke="none" stroke-width="1" fill="none" fill-rule="evenodd" stroke-opacity="0.552790987">
        <g id="Technology-1280" transform="translate(-1.000000, -85.000000)" stroke="#999999">
            <g id="technology_background" transform="translate(2.000000, 87.000000)">
                <g id="Group-2" transform="translate(969.782358, 0.000000)">
                    <polyline id="Line" stroke-width="5" stroke-linecap="round" stroke-linejoin="round" style="mix-blend-mode: overlay;" points="194.599658 70.4553846 194.599658 328.572308 194.599658 378.74115"></polyline>
                    <circle id="Oval-3" stroke-width="3" style="mix-blend-mode: overlay;" cx="196" cy="54" r="16"></circle>
                    <polyline id="Line" stroke-width="5" stroke-linecap="round" stroke-linejoin="round" style="mix-blend-mode: overlay;" transform="translate(52.845361, 188.915579) scale(1, -1) translate(-52.845361, -188.915579) " points="52.3453612 34.7726961 52.3453612 292.889619 52.3453612 343.058462"></polyline>
                    <circle id="Oval-3" stroke-width="3" style="mix-blend-mode: overlay;" transform="translate(53.000000, 360.000000) scale(1, -1) translate(-53.000000, -360.000000) " cx="53" cy="360" r="16"></circle>
                    <path d="M110.300815,34.8984615 L110.300815,293.015385" id="Line" stroke-width="5" stroke-linecap="round" stroke-linejoin="round" style="mix-blend-mode: overlay;"></path>
                    <circle id="Oval-3" stroke-width="3" style="mix-blend-mode: overlay;" cx="111" cy="19" r="16"></circle>
                    <path d="M249.490952,137.618462 L249.490952,395.735385" id="Line" stroke-width="5" stroke-linecap="round" stroke-linejoin="round" style="mix-blend-mode: overlay;" transform="translate(249.490952, 266.676923) scale(1, -1) translate(-249.490952, -266.676923) "></path>
                    <circle id="Oval-3" stroke-width="3" style="mix-blend-mode: overlay;" transform="translate(251.000000, 412.000000) scale(1, -1) translate(-251.000000, -412.000000) " cx="251" cy="412" r="16"></circle>
                    <polyline id="Line" stroke-width="5" stroke-linecap="round" stroke-linejoin="round" style="mix-blend-mode: overlay;" points="250.149537 47.4092308 248.974123 95.0861851 220.284461 122.944804 220.284461 329.611274"></polyline>
                    <polyline id="Line" stroke-width="5" stroke-linecap="round" stroke-linejoin="round" style="mix-blend-mode: overlay;" points="305.470652 47.4092308 304.295239 95.0861851 275.605576 122.944804 275.605576 329.611274"></polyline>
                    <path d="M305.900473,0.658461538 L305.900473,26.6061851" id="Line" stroke-width="5" stroke-linecap="round" stroke-linejoin="round" style="mix-blend-mode: overlay;"></path>
                    <path d="M109.642231,316.72 L109.642231,342.667724" id="Line-Copy-2" stroke-width="5" stroke-linecap="round" stroke-linejoin="round" style="mix-blend-mode: overlay;"></path>
                    <path d="M81.9816729,134.984615 L81.9816729,237.704615" id="Line-Copy-3" stroke-width="5" stroke-linecap="round" stroke-linejoin="round" style="mix-blend-mode: overlay;"></path>
                    <path d="M304.583303,133.667692 L304.583303,235.070769" id="Line-Copy" stroke-width="5" stroke-linecap="round" stroke-linejoin="round" style="mix-blend-mode: overlay;"></path>
                    <polyline id="Line-Copy-4" stroke-width="5" stroke-linecap="round" stroke-linejoin="round" style="mix-blend-mode: overlay;" points="24.0262188 133.667692 24.0262188 324.621538 0.0389171609 348.312104 0.505690963 380.230522"></polyline>
                    <polyline id="Line" stroke-width="5" stroke-linecap="round" stroke-linejoin="round" style="mix-blend-mode: overlay;" transform="translate(124.574768, 264.891791) scale(-1, -1) translate(-124.574768, -264.891791) " points="139.507306 123.790769 138.331893 171.467724 109.642231 199.326342 109.642231 405.992813"></polyline>
                    <polyline id="Line" stroke-width="5" stroke-linecap="round" stroke-linejoin="round" style="mix-blend-mode: overlay;" transform="translate(154.869665, 188.510252) scale(-1, 1) translate(-154.869665, -188.510252) " points="169.802203 47.4092308 168.626789 95.0861851 139.937127 122.944804 139.937127 329.611274"></polyline>
                </g>
                <g id="Group-2-Copy" transform="translate(788.214345, 214.000000) scale(1, -1) translate(-788.214345, -214.000000) translate(634.214345, 0.000000)">
                    <polyline id="Line" stroke-width="5" stroke-linecap="round" stroke-linejoin="round" style="mix-blend-mode: overlay;" points="194.599658 70.4553846 194.599658 328.572308 194.599658 378.74115"></polyline>
                    <circle id="Oval-3" stroke-width="3" style="mix-blend-mode: overlay;" cx="196" cy="54" r="16"></circle>
                    <polyline id="Line" stroke-width="5" stroke-linecap="round" stroke-linejoin="round" style="mix-blend-mode: overlay;" transform="translate(52.845361, 188.915579) scale(1, -1) translate(-52.845361, -188.915579) " points="52.3453612 34.7726961 52.3453612 292.889619 52.3453612 343.058462"></polyline>
                    <circle id="Oval-3" stroke-width="3" style="mix-blend-mode: overlay;" transform="translate(53.000000, 360.000000) scale(1, -1) translate(-53.000000, -360.000000) " cx="53" cy="360" r="16"></circle>
                    <path d="M110.300815,34.8984615 L110.300815,293.015385" id="Line" stroke-width="5" stroke-linecap="round" stroke-linejoin="round" style="mix-blend-mode: overlay;"></path>
                    <circle id="Oval-3" stroke-width="3" style="mix-blend-mode: overlay;" cx="111" cy="19" r="16"></circle>
                    <path d="M249.490952,137.618462 L249.490952,395.735385" id="Line" stroke-width="5" stroke-linecap="round" stroke-linejoin="round" style="mix-blend-mode: overlay;" transform="translate(249.490952, 266.676923) scale(1, -1) translate(-249.490952, -266.676923) "></path>
                    <circle id="Oval-3" stroke-width="3" style="mix-blend-mode: overlay;" transform="translate(251.000000, 412.000000) scale(1, -1) translate(-251.000000, -412.000000) " cx="251" cy="412" r="16"></circle>
                    <polyline id="Line" stroke-width="5" stroke-linecap="round" stroke-linejoin="round" style="mix-blend-mode: overlay;" points="250.149537 47.4092308 248.974123 95.0861851 220.284461 122.944804 220.284461 329.611274"></polyline>
                    <polyline id="Line" stroke-width="5" stroke-linecap="round" stroke-linejoin="round" style="mix-blend-mode: overlay;" points="305.470652 47.4092308 304.295239 95.0861851 275.605576 122.944804 275.605576 329.611274"></polyline>
                    <path d="M305.900473,0.658461538 L305.900473,26.6061851" id="Line" stroke-width="5" stroke-linecap="round" stroke-linejoin="round" style="mix-blend-mode: overlay;"></path>
                    <path d="M109.642231,316.72 L109.642231,342.667724" id="Line-Copy-2" stroke-width="5" stroke-linecap="round" stroke-linejoin="round" style="mix-blend-mode: overlay;"></path>
                    <path d="M81.9816729,134.984615 L81.9816729,237.704615" id="Line-Copy-3" stroke-width="5" stroke-linecap="round" stroke-linejoin="round" style="mix-blend-mode: overlay;"></path>
                    <path d="M304.583303,133.667692 L304.583303,235.070769" id="Line-Copy" stroke-width="5" stroke-linecap="round" stroke-linejoin="round" style="mix-blend-mode: overlay;"></path>
                    <polyline id="Line-Copy-4" stroke-width="5" stroke-linecap="round" stroke-linejoin="round" style="mix-blend-mode: overlay;" points="24.0262188 133.667692 24.0262188 324.621538 0.0389171609 348.312104 0.505690963 380.230522"></polyline>
                    <polyline id="Line" stroke-width="5" stroke-linecap="round" stroke-linejoin="round" style="mix-blend-mode: overlay;" transform="translate(124.574768, 264.891791) scale(-1, -1) translate(-124.574768, -264.891791) " points="139.507306 123.790769 138.331893 171.467724 109.642231 199.326342 109.642231 405.992813"></polyline>
                    <polyline id="Line" stroke-width="5" stroke-linecap="round" stroke-linejoin="round" style="mix-blend-mode: overlay;" transform="translate(154.869665, 188.510252) scale(-1, 1) translate(-154.869665, -188.510252) " points="169.802203 47.4092308 168.626789 95.0861851 139.937127 122.944804 139.937127 329.611274"></polyline>
                </g>
                <g id="Group-2-Copy-2" transform="translate(478.214345, 214.000000) scale(-1, 1) translate(-478.214345, -214.000000) translate(324.214345, 0.000000)">
                    <polyline id="Line" stroke-width="5" stroke-linecap="round" stroke-linejoin="round" style="mix-blend-mode: overlay;" points="194.599658 70.4553846 194.599658 328.572308 194.599658 378.74115"></polyline>
                    <circle id="Oval-3" stroke-width="3" style="mix-blend-mode: overlay;" cx="196" cy="54" r="16"></circle>
                    <polyline id="Line" stroke-width="5" stroke-linecap="round" stroke-linejoin="round" style="mix-blend-mode: overlay;" transform="translate(52.845361, 188.915579) scale(1, -1) translate(-52.845361, -188.915579) " points="52.3453612 34.7726961 52.3453612 292.889619 52.3453612 343.058462"></polyline>
                    <circle id="Oval-3" stroke-width="3" style="mix-blend-mode: overlay;" transform="translate(53.000000, 360.000000) scale(1, -1) translate(-53.000000, -360.000000) " cx="53" cy="360" r="16"></circle>
                    <path d="M110.300815,34.8984615 L110.300815,293.015385" id="Line" stroke-width="5" stroke-linecap="round" stroke-linejoin="round" style="mix-blend-mode: overlay;"></path>
                    <circle id="Oval-3" stroke-width="3" style="mix-blend-mode: overlay;" cx="111" cy="19" r="16"></circle>
                    <path d="M249.490952,137.618462 L249.490952,395.735385" id="Line" stroke-width="5" stroke-linecap="round" stroke-linejoin="round" style="mix-blend-mode: overlay;" transform="translate(249.490952, 266.676923) scale(1, -1) translate(-249.490952, -266.676923) "></path>
                    <circle id="Oval-3" stroke-width="3" style="mix-blend-mode: overlay;" transform="translate(251.000000, 412.000000) scale(1, -1) translate(-251.000000, -412.000000) " cx="251" cy="412" r="16"></circle>
                    <polyline id="Line" stroke-width="5" stroke-linecap="round" stroke-linejoin="round" style="mix-blend-mode: overlay;" points="250.149537 47.4092308 248.974123 95.0861851 220.284461 122.944804 220.284461 329.611274"></polyline>
                    <polyline id="Line" stroke-width="5" stroke-linecap="round" stroke-linejoin="round" style="mix-blend-mode: overlay;" points="305.470652 47.4092308 304.295239 95.0861851 275.605576 122.944804 275.605576 329.611274"></polyline>
                    <path d="M305.900473,0.658461538 L305.900473,26.6061851" id="Line" stroke-width="5" stroke-linecap="round" stroke-linejoin="round" style="mix-blend-mode: overlay;"></path>
                    <path d="M109.642231,316.72 L109.642231,342.667724" id="Line-Copy-2" stroke-width="5" stroke-linecap="round" stroke-linejoin="round" style="mix-blend-mode: overlay;"></path>
                    <path d="M81.9816729,134.984615 L81.9816729,237.704615" id="Line-Copy-3" stroke-width="5" stroke-linecap="round" stroke-linejoin="round" style="mix-blend-mode: overlay;"></path>
                    <path d="M304.583303,133.667692 L304.583303,235.070769" id="Line-Copy" stroke-width="5" stroke-linecap="round" stroke-linejoin="round" style="mix-blend-mode: overlay;"></path>
                    <polyline id="Line-Copy-4" stroke-width="5" stroke-linecap="round" stroke-linejoin="round" style="mix-blend-mode: overlay;" points="24.0262188 133.667692 24.0262188 324.621538 0.0389171609 348.312104 0.505690963 380.230522"></polyline>
                    <polyline id="Line" stroke-width="5" stroke-linecap="round" stroke-linejoin="round" style="mix-blend-mode: overlay;" transform="translate(124.574768, 264.891791) scale(-1, -1) translate(-124.574768, -264.891791) " points="139.507306 123.790769 138.331893 171.467724 109.642231 199.326342 109.642231 405.992813"></polyline>
                    <polyline id="Line" stroke-width="5" stroke-linecap="round" stroke-linejoin="round" style="mix-blend-mode: overlay;" transform="translate(154.869665, 188.510252) scale(-1, 1) translate(-154.869665, -188.510252) " points="169.802203 47.4092308 168.626789 95.0861851 139.937127 122.944804 139.937127 329.611274"></polyline>
                </g>
                <g id="Group-2-Copy-4" transform="translate(154.217642, 214.000000) scale(-1, 1) translate(-154.217642, -214.000000) translate(0.217642, 0.000000)">
                    <polyline id="Line" stroke-width="5" stroke-linecap="round" stroke-linejoin="round" style="mix-blend-mode: overlay;" points="194.599658 70.4553846 194.599658 328.572308 194.599658 378.74115"></polyline>
                    <circle id="Oval-3" stroke-width="3" style="mix-blend-mode: overlay;" cx="196" cy="54" r="16"></circle>
                    <polyline id="Line" stroke-width="5" stroke-linecap="round" stroke-linejoin="round" style="mix-blend-mode: overlay;" transform="translate(52.845361, 188.915579) scale(1, -1) translate(-52.845361, -188.915579) " points="52.3453612 34.7726961 52.3453612 292.889619 52.3453612 343.058462"></polyline>
                    <circle id="Oval-3" stroke-width="3" style="mix-blend-mode: overlay;" transform="translate(53.000000, 360.000000) scale(1, -1) translate(-53.000000, -360.000000) " cx="53" cy="360" r="16"></circle>
                    <path d="M110.300815,34.8984615 L110.300815,293.015385" id="Line" stroke-width="5" stroke-linecap="round" stroke-linejoin="round" style="mix-blend-mode: overlay;"></path>
                    <circle id="Oval-3" stroke-width="3" style="mix-blend-mode: overlay;" cx="111" cy="19" r="16"></circle>
                    <path d="M249.490952,137.618462 L249.490952,395.735385" id="Line" stroke-width="5" stroke-linecap="round" stroke-linejoin="round" style="mix-blend-mode: overlay;" transform="translate(249.490952, 266.676923) scale(1, -1) translate(-249.490952, -266.676923) "></path>
                    <circle id="Oval-3" stroke-width="3" style="mix-blend-mode: overlay;" transform="translate(251.000000, 412.000000) scale(1, -1) translate(-251.000000, -412.000000) " cx="251" cy="412" r="16"></circle>
                    <polyline id="Line" stroke-width="5" stroke-linecap="round" stroke-linejoin="round" style="mix-blend-mode: overlay;" points="250.149537 47.4092308 248.974123 95.0861851 220.284461 122.944804 220.284461 329.611274"></polyline>
                    <polyline id="Line" stroke-width="5" stroke-linecap="round" stroke-linejoin="round" style="mix-blend-mode: overlay;" points="305.470652 47.4092308 304.295239 95.0861851 275.605576 122.944804 275.605576 329.611274"></polyline>
                    <path d="M305.900473,0.658461538 L305.900473,26.6061851" id="Line" stroke-width="5" stroke-linecap="round" stroke-linejoin="round" style="mix-blend-mode: overlay;"></path>
                    <path d="M109.642231,311.462015 L109.642231,337.409738" id="Line-Copy-2" stroke-width="5" stroke-linecap="round" stroke-linejoin="round" style="mix-blend-mode: overlay;"></path>
                    <path d="M81.9816729,134.984615 L81.9816729,237.704615" id="Line-Copy-3" stroke-width="5" stroke-linecap="round" stroke-linejoin="round" style="mix-blend-mode: overlay;"></path>
                    <path d="M304.583303,133.667692 L304.583303,235.070769" id="Line-Copy" stroke-width="5" stroke-linecap="round" stroke-linejoin="round" style="mix-blend-mode: overlay;"></path>
                    <polyline id="Line-Copy-4" stroke-width="5" stroke-linecap="round" stroke-linejoin="round" style="mix-blend-mode: overlay;" points="24.0262188 133.667692 24.0262188 324.621538 0.0389171609 348.312104 0.505690963 380.230522"></polyline>
                    <polyline id="Line" stroke-width="5" stroke-linecap="round" stroke-linejoin="round" style="mix-blend-mode: overlay;" transform="translate(124.574768, 264.891791) scale(-1, -1) translate(-124.574768, -264.891791) " points="139.507306 123.790769 138.331893 171.467724 109.642231 199.326342 109.642231 405.992813"></polyline>
                    <polyline id="Line" stroke-width="5" stroke-linecap="round" stroke-linejoin="round" style="mix-blend-mode: overlay;" transform="translate(154.869665, 188.510252) scale(-1, 1) translate(-154.869665, -188.510252) " points="169.802203 47.4092308 168.626789 95.0861851 139.937127 122.944804 139.937127 329.611274"></polyline>
                </g>
            </g>
        </g>
    </g>
</svg>