<?xml version="1.0" encoding="UTF-8"?>
<svg width="136px" height="144px" viewBox="0 0 136 144" version="1.1" xmlns="http://www.w3.org/2000/svg" xmlns:xlink="http://www.w3.org/1999/xlink">
    <!-- Generator: Sketch 42 (36781) - http://www.bohemiancoding.com/sketch -->
    <title>token</title>
    <desc>Created with Sketch.</desc>
    <defs>
        <circle id="path-1" cx="52" cy="52" r="52"></circle>
        <mask id="mask-3" maskContentUnits="userSpaceOnUse" maskUnits="objectBoundingBox" x="-5" y="-5" width="114" height="114">
            <rect x="-5" y="-5" width="114" height="114" fill="white"></rect>
            <use xlink:href="#path-1" fill="black"></use>
        </mask>
    </defs>
    <g id="Technology" stroke="none" stroke-width="1" fill="none" fill-rule="evenodd">
        <g id="Technology-1280" transform="translate(-572.000000, -3339.000000)">
            <g id="token" transform="translate(575.000000, 3342.000000)">
                <g id="Group-19">
                    <circle id="Oval-8" stroke="#42A5F5" stroke-width="5" fill="#42A5F5" cx="65" cy="73" r="65"></circle>
                    <circle id="Oval-8" stroke="#42A5F5" stroke-width="5" fill="#E8F5FF" cx="65" cy="65" r="65"></circle>
                    <g id="Oval-8" transform="translate(12.839506, 12.837209)">
                        <mask id="mask-2" fill="white">
                            <use xlink:href="#path-1"></use>
                        </mask>
                        <g id="Mask">
                            <use fill="#BAE1FF" fill-rule="evenodd" xlink:href="#path-1"></use>
                            <use stroke="#42A5F5" mask="url(#mask-3)" stroke-width="10" xlink:href="#path-1"></use>
                        </g>
                        <ellipse fill="#E8F5FF" mask="url(#mask-2)" cx="52" cy="58" rx="52" ry="52"></ellipse>
                    </g>
                </g>
                <g id="Group-20" transform="translate(32.292994, 40.709715)">
                    <path d="M40.1425701,30.0081659 C39.4348654,28.3153756 37.7302042,27.1218083 35.7691269,27.1218083 C34.8716037,27.1218083 34.0331129,27.3718134 33.3209467,27.8052613 C32.7014432,28.1047968 32.0051338,28.2729175 31.2691269,28.2729175 C30.5331201,28.2729175 29.8368106,28.1047968 29.2173072,27.8052613 C28.5051409,27.3718134 27.6666501,27.1218083 26.7691269,27.1218083 C24.7414048,27.1218083 23.014994,28.3978779 22.3658804,30.1824505 C22.3197892,30.4237592 22.2547581,30.658446 22.1723734,30.8849417 C22.1521703,30.9907142 22.1356062,31.097759 22.1228146,31.2059439 L22.041611,31.2059439 C21.3113298,32.8205748 19.6730494,33.9455839 17.7691269,33.9455839 C15.1854186,33.9455839 13.0909091,31.8737999 13.0909091,29.3181247 C13.0909091,26.7624496 15.1854186,24.6906656 17.7691269,24.6906656 C18.6666501,24.6906656 19.5051409,24.9406706 20.2173072,25.3741186 C20.8368106,25.6736541 21.5331201,25.8417748 22.2691269,25.8417748 C24.5542048,25.8417748 26.4566338,24.2212356 26.8658804,22.0786414 C27.514994,20.2940688 29.2414048,19.0179992 31.2691269,19.0179992 C33.296849,19.0179992 35.0232598,20.2940688 35.6723734,22.0786414 C36.08162,24.2212356 37.984049,25.8417748 40.2691269,25.8417748 C41.0051338,25.8417748 41.7014432,25.6736541 42.3209467,25.3741186 C43.0331129,24.9406706 43.8716037,24.6906656 44.7691269,24.6906656 C47.3528353,24.6906656 49.4473447,26.7624496 49.4473447,29.3181247 C49.4473447,31.8737999 47.3528353,33.9455839 44.7691269,33.9455839 C42.8652044,33.9455839 41.2269241,32.8205748 40.4966428,31.2059439 L40.4589016,31.2059439 C40.4538112,31.1637403 40.4481358,31.1217102 40.4418836,31.0798614 C40.3007185,30.740977 40.1990564,30.3818747 40.1425701,30.0081659 Z M53.6435644,18.6588531 L53.6422283,18.6588531 C53.6431173,18.6217283 53.6435644,18.5844953 53.6435644,18.547159 C53.6435644,15.9914838 51.5490549,13.9196998 48.9653465,13.9196998 C48.4185636,13.9196998 47.8936899,14.0124868 47.4059406,14.183011 L47.4059406,14.1735393 C47.0087798,14.2819661 46.5904366,14.3398912 46.1584158,14.3398912 C44.4459995,14.3398912 42.9484737,13.4298182 42.1332039,12.0719669 L42.1224475,12.0769827 C42.1167713,12.0594697 42.1109836,12.0419724 42.1050842,12.0244917 C41.9485074,11.756496 41.8183153,11.471526 41.7180204,11.173056 C40.5259684,9.12784558 37.9297102,8.30058159 35.7187634,9.331563 C35.1733616,9.58588804 34.6995114,9.93085997 34.3071169,10.3397225 L34.3036198,10.3322231 C33.5223075,10.9116572 32.5516799,11.2549184 31.5,11.2549184 C30.327792,11.2549184 29.2562789,10.8284696 28.435375,10.1238596 L28.4183437,10.1603835 C28.0852754,9.86533997 27.7042224,9.61257207 27.2798503,9.4146841 C24.9382153,8.32276176 22.1643713,9.31525783 21.0842963,11.6314861 C21.0472607,11.7109091 21.0126976,11.7908572 20.9805753,11.871245 C20.1963143,13.3393789 18.6370719,14.3398912 16.8415842,14.3398912 C16.4095634,14.3398912 15.9912202,14.2819661 15.5940594,14.1735393 L15.5940594,14.1840068 C15.1063101,14.0134827 14.5814364,13.9206956 14.0346535,13.9206956 C11.4509451,13.9206956 9.35643564,15.9924796 9.35643564,18.5481548 C9.35643564,18.6894553 9.36283827,18.8292766 9.37537222,18.9673504 L9.34620452,18.9673504 C9.1857148,21.3791919 7.1571252,23.2863123 4.67821782,23.2863123 C2.09450946,23.2863123 0,21.2145282 0,18.6588531 C0,16.1031779 2.09450946,14.0313939 4.67821782,14.0313939 C5.11023855,14.0313939 5.52858176,14.089319 5.92574257,14.1977457 L5.92574257,14.188274 C6.41349189,14.3587982 6.93836555,14.4515853 7.48514851,14.4515853 C10.0688569,14.4515853 12.1633663,12.3798012 12.1633663,9.82412609 C12.1633663,9.7867898 12.1629193,9.74955677 12.1620303,9.71243198 L12.1633663,9.71243198 C12.1633663,7.15675684 14.2578758,5.08497279 16.8415842,5.08497279 C17.9072055,5.08497279 18.8896114,5.43739506 19.676176,6.03083591 L19.6814751,6.01947197 C20.066934,6.41255715 20.5288273,6.74472889 21.0581039,6.99153461 C23.3997389,8.08345694 26.1735829,7.09096087 27.2536579,4.77473259 C27.3209389,4.63044809 27.3800602,4.48443051 27.4312115,4.33719171 L27.4334216,4.33822228 C28.2387242,2.94157581 29.7581976,2 31.5,2 C33.2264062,2 34.7343964,2.92500375 35.5450566,4.30129342 C35.600637,4.46859028 35.6664301,4.63440534 35.7427121,4.79799258 C36.8227871,7.11422086 39.5966311,8.10671693 41.9382661,7.01479459 C42.2421154,6.87310734 42.5237571,6.70328578 42.7814785,6.5099564 C43.6329328,5.63172515 44.8311235,5.08497279 46.1584158,5.08497279 C48.6373232,5.08497279 50.6659128,6.99209316 50.8264025,9.4039347 L50.8555702,9.4039347 C50.8430363,9.54200845 50.8366337,9.68182977 50.8366337,9.82313027 C50.8366337,12.3788054 52.9311431,14.4505895 55.5148515,14.4505895 C56.0616344,14.4505895 56.5865081,14.3578024 57.0742574,14.1872782 L57.0742574,14.1977457 C57.4714182,14.089319 57.8897614,14.0313939 58.3217822,14.0313939 C60.9054905,14.0313939 63,16.1031779 63,18.6588531 C63,21.2145282 60.9054905,23.2863123 58.3217822,23.2863123 C55.7380738,23.2863123 53.6435644,21.2145282 53.6435644,18.6588531 Z M31.4238282,46 C28.3028113,46 25.7727273,43.4973673 25.7727273,40.4102135 C25.7727273,37.3230596 28.3028113,34.820427 31.4238282,34.820427 C34.5448451,34.820427 37.0749291,37.3230596 37.0749291,40.4102135 C37.0749291,43.4973673 34.5448451,46 31.4238282,46 Z" id="Combined-Shape" fill="#BBDFFD"></path>
                    <path d="M40.1425701,30.0081659 C39.4348654,28.3153756 37.7302042,27.1218083 35.7691269,27.1218083 C34.8716037,27.1218083 34.0331129,27.3718134 33.3209467,27.8052613 C32.7014432,28.1047968 32.0051338,28.2729175 31.2691269,28.2729175 C30.5331201,28.2729175 29.8368106,28.1047968 29.2173072,27.8052613 C28.5051409,27.3718134 27.6666501,27.1218083 26.7691269,27.1218083 C24.7414048,27.1218083 23.014994,28.3978779 22.3658804,30.1824505 C22.3197892,30.4237592 22.2547581,30.658446 22.1723734,30.8849417 C22.1521703,30.9907142 22.1356062,31.097759 22.1228146,31.2059439 L22.041611,31.2059439 C21.3113298,32.8205748 19.6730494,33.9455839 17.7691269,33.9455839 C15.1854186,33.9455839 13.0909091,31.8737999 13.0909091,29.3181247 C13.0909091,26.7624496 15.1854186,24.6906656 17.7691269,24.6906656 C18.6666501,24.6906656 19.5051409,24.9406706 20.2173072,25.3741186 C20.8368106,25.6736541 21.5331201,25.8417748 22.2691269,25.8417748 C24.5542048,25.8417748 26.4566338,24.2212356 26.8658804,22.0786414 C27.514994,20.2940688 29.2414048,19.0179992 31.2691269,19.0179992 C33.296849,19.0179992 35.0232598,20.2940688 35.6723734,22.0786414 C36.08162,24.2212356 37.984049,25.8417748 40.2691269,25.8417748 C41.0051338,25.8417748 41.7014432,25.6736541 42.3209467,25.3741186 C43.0331129,24.9406706 43.8716037,24.6906656 44.7691269,24.6906656 C47.3528353,24.6906656 49.4473447,26.7624496 49.4473447,29.3181247 C49.4473447,31.8737999 47.3528353,33.9455839 44.7691269,33.9455839 C42.8652044,33.9455839 41.2269241,32.8205748 40.4966428,31.2059439 L40.4589016,31.2059439 C40.4538112,31.1637403 40.4481358,31.1217102 40.4418836,31.0798614 C40.3007185,30.740977 40.1990564,30.3818747 40.1425701,30.0081659 Z M53.6435644,18.6588531 L53.6422283,18.6588531 C53.6431173,18.6217283 53.6435644,18.5844953 53.6435644,18.547159 C53.6435644,15.9914838 51.5490549,13.9196998 48.9653465,13.9196998 C48.4185636,13.9196998 47.8936899,14.0124868 47.4059406,14.183011 L47.4059406,14.1735393 C47.0087798,14.2819661 46.5904366,14.3398912 46.1584158,14.3398912 C44.4459995,14.3398912 42.9484737,13.4298182 42.1332039,12.0719669 L42.1224475,12.0769827 C42.1167713,12.0594697 42.1109836,12.0419724 42.1050842,12.0244917 C41.9485074,11.756496 41.8183153,11.471526 41.7180204,11.173056 C40.5259684,9.12784558 37.9297102,8.30058159 35.7187634,9.331563 C35.1733616,9.58588804 34.6995114,9.93085997 34.3071169,10.3397225 L34.3036198,10.3322231 C33.5223075,10.9116572 32.5516799,11.2549184 31.5,11.2549184 C30.327792,11.2549184 29.2562789,10.8284696 28.435375,10.1238596 L28.4183437,10.1603835 C28.0852754,9.86533997 27.7042224,9.61257207 27.2798503,9.4146841 C24.9382153,8.32276176 22.1643713,9.31525783 21.0842963,11.6314861 C21.0472607,11.7109091 21.0126976,11.7908572 20.9805753,11.871245 C20.1963143,13.3393789 18.6370719,14.3398912 16.8415842,14.3398912 C16.4095634,14.3398912 15.9912202,14.2819661 15.5940594,14.1735393 L15.5940594,14.1840068 C15.1063101,14.0134827 14.5814364,13.9206956 14.0346535,13.9206956 C11.4509451,13.9206956 9.35643564,15.9924796 9.35643564,18.5481548 C9.35643564,18.6894553 9.36283827,18.8292766 9.37537222,18.9673504 L9.34620452,18.9673504 C9.1857148,21.3791919 7.1571252,23.2863123 4.67821782,23.2863123 C2.09450946,23.2863123 0,21.2145282 0,18.6588531 C0,16.1031779 2.09450946,14.0313939 4.67821782,14.0313939 C5.11023855,14.0313939 5.52858176,14.089319 5.92574257,14.1977457 L5.92574257,14.188274 C6.41349189,14.3587982 6.93836555,14.4515853 7.48514851,14.4515853 C10.0688569,14.4515853 12.1633663,12.3798012 12.1633663,9.82412609 C12.1633663,9.7867898 12.1629193,9.74955677 12.1620303,9.71243198 L12.1633663,9.71243198 C12.1633663,7.15675684 14.2578758,5.08497279 16.8415842,5.08497279 C17.9072055,5.08497279 18.8896114,5.43739506 19.676176,6.03083591 L19.6814751,6.01947197 C20.066934,6.41255715 20.5288273,6.74472889 21.0581039,6.99153461 C23.3997389,8.08345694 26.1735829,7.09096087 27.2536579,4.77473259 C27.3209389,4.63044809 27.3800602,4.48443051 27.4312115,4.33719171 L27.4334216,4.33822228 C28.2387242,2.94157581 29.7581976,2 31.5,2 C33.2264062,2 34.7343964,2.92500375 35.5450566,4.30129342 C35.600637,4.46859028 35.6664301,4.63440534 35.7427121,4.79799258 C36.8227871,7.11422086 39.5966311,8.10671693 41.9382661,7.01479459 C42.2421154,6.87310734 42.5237571,6.70328578 42.7814785,6.5099564 C43.6329328,5.63172515 44.8311235,5.08497279 46.1584158,5.08497279 C48.6373232,5.08497279 50.6659128,6.99209316 50.8264025,9.4039347 L50.8555702,9.4039347 C50.8430363,9.54200845 50.8366337,9.68182977 50.8366337,9.82313027 C50.8366337,12.3788054 52.9311431,14.4505895 55.5148515,14.4505895 C56.0616344,14.4505895 56.5865081,14.3578024 57.0742574,14.1872782 L57.0742574,14.1977457 C57.4714182,14.089319 57.8897614,14.0313939 58.3217822,14.0313939 C60.9054905,14.0313939 63,16.1031779 63,18.6588531 C63,21.2145282 60.9054905,23.2863123 58.3217822,23.2863123 C55.7380738,23.2863123 53.6435644,21.2145282 53.6435644,18.6588531 Z M31.4238282,46 C28.3028113,46 25.7727273,43.4973673 25.7727273,40.4102135 C25.7727273,37.3230596 28.3028113,34.820427 31.4238282,34.820427 C34.5448451,34.820427 37.0749291,37.3230596 37.0749291,40.4102135 C37.0749291,43.4973673 34.5448451,46 31.4238282,46 Z" id="Combined-Shape" fill="#BBDFFD"></path>
                    <path d="M40.1425701,28.0081659 C39.4348654,26.3153756 37.7302042,25.1218083 35.7691269,25.1218083 C34.8716037,25.1218083 34.0331129,25.3718134 33.3209467,25.8052613 C32.7014432,26.1047968 32.0051338,26.2729175 31.2691269,26.2729175 C30.5331201,26.2729175 29.8368106,26.1047968 29.2173072,25.8052613 C28.5051409,25.3718134 27.6666501,25.1218083 26.7691269,25.1218083 C24.7414048,25.1218083 23.014994,26.3978779 22.3658804,28.1824505 C22.3197892,28.4237592 22.2547581,28.658446 22.1723734,28.8849417 C22.1521703,28.9907142 22.1356062,29.097759 22.1228146,29.2059439 L22.041611,29.2059439 C21.3113298,30.8205748 19.6730494,31.9455839 17.7691269,31.9455839 C15.1854186,31.9455839 13.0909091,29.8737999 13.0909091,27.3181247 C13.0909091,24.7624496 15.1854186,22.6906656 17.7691269,22.6906656 C18.6666501,22.6906656 19.5051409,22.9406706 20.2173072,23.3741186 C20.8368106,23.6736541 21.5331201,23.8417748 22.2691269,23.8417748 C24.5542048,23.8417748 26.4566338,22.2212356 26.8658804,20.0786414 C27.514994,18.2940688 29.2414048,17.0179992 31.2691269,17.0179992 C33.296849,17.0179992 35.0232598,18.2940688 35.6723734,20.0786414 C36.08162,22.2212356 37.984049,23.8417748 40.2691269,23.8417748 C41.0051338,23.8417748 41.7014432,23.6736541 42.3209467,23.3741186 C43.0331129,22.9406706 43.8716037,22.6906656 44.7691269,22.6906656 C47.3528353,22.6906656 49.4473447,24.7624496 49.4473447,27.3181247 C49.4473447,29.8737999 47.3528353,31.9455839 44.7691269,31.9455839 C42.8652044,31.9455839 41.2269241,30.8205748 40.4966428,29.2059439 L40.4589016,29.2059439 C40.4538112,29.1637403 40.4481358,29.1217102 40.4418836,29.0798614 C40.3007185,28.740977 40.1990564,28.3818747 40.1425701,28.0081659 Z M53.6435644,16.6588531 L53.6422283,16.6588531 C53.6431173,16.6217283 53.6435644,16.5844953 53.6435644,16.547159 C53.6435644,13.9914838 51.5490549,11.9196998 48.9653465,11.9196998 C48.4185636,11.9196998 47.8936899,12.0124868 47.4059406,12.183011 L47.4059406,12.1735393 C47.0087798,12.2819661 46.5904366,12.3398912 46.1584158,12.3398912 C44.4459995,12.3398912 42.9484737,11.4298182 42.1332039,10.0719669 L42.1224475,10.0769827 C42.1167713,10.0594697 42.1109836,10.0419724 42.1050842,10.0244917 C41.9485074,9.75649597 41.8183153,9.47152599 41.7180204,9.17305604 C40.5259684,7.12784558 37.9297102,6.30058159 35.7187634,7.331563 C35.1733616,7.58588804 34.6995114,7.93085997 34.3071169,8.33972246 L34.3036198,8.33222308 C33.5223075,8.91165722 32.5516799,9.25491838 31.5,9.25491838 C30.327792,9.25491838 29.2562789,8.82846958 28.435375,8.12385959 L28.4183437,8.16038352 C28.0852754,7.86533997 27.7042224,7.61257207 27.2798503,7.4146841 C24.9382153,6.32276176 22.1643713,7.31525783 21.0842963,9.63148611 C21.0472607,9.71090908 21.0126976,9.79085718 20.9805753,9.87124505 C20.1963143,11.3393789 18.6370719,12.3398912 16.8415842,12.3398912 C16.4095634,12.3398912 15.9912202,12.2819661 15.5940594,12.1735393 L15.5940594,12.1840068 C15.1063101,12.0134827 14.5814364,11.9206956 14.0346535,11.9206956 C11.4509451,11.9206956 9.35643564,13.9924796 9.35643564,16.5481548 C9.35643564,16.6894553 9.36283827,16.8292766 9.37537222,16.9673504 L9.34620452,16.9673504 C9.1857148,19.3791919 7.1571252,21.2863123 4.67821782,21.2863123 C2.09450946,21.2863123 0,19.2145282 0,16.6588531 C0,14.1031779 2.09450946,12.0313939 4.67821782,12.0313939 C5.11023855,12.0313939 5.52858176,12.089319 5.92574257,12.1977457 L5.92574257,12.188274 C6.41349189,12.3587982 6.93836555,12.4515853 7.48514851,12.4515853 C10.0688569,12.4515853 12.1633663,10.3798012 12.1633663,7.82412609 C12.1633663,7.7867898 12.1629193,7.74955677 12.1620303,7.71243198 L12.1633663,7.71243198 C12.1633663,5.15675684 14.2578758,3.08497279 16.8415842,3.08497279 C17.9072055,3.08497279 18.8896114,3.43739506 19.676176,4.03083591 L19.6814751,4.01947197 C20.066934,4.41255715 20.5288273,4.74472889 21.0581039,4.99153461 C23.3997389,6.08345694 26.1735829,5.09096087 27.2536579,2.77473259 C27.3209389,2.63044809 27.3800602,2.48443051 27.4312115,2.33719171 L27.4334216,2.33822228 C28.2387242,0.941575807 29.7581976,0 31.5,0 C33.2264062,0 34.7343964,0.925003751 35.5450566,2.30129342 C35.600637,2.46859028 35.6664301,2.63440534 35.7427121,2.79799258 C36.8227871,5.11422086 39.5966311,6.10671693 41.9382661,5.01479459 C42.2421154,4.87310734 42.5237571,4.70328578 42.7814785,4.5099564 C43.6329328,3.63172515 44.8311235,3.08497279 46.1584158,3.08497279 C48.6373232,3.08497279 50.6659128,4.99209316 50.8264025,7.4039347 L50.8555702,7.4039347 C50.8430363,7.54200845 50.8366337,7.68182977 50.8366337,7.82313027 C50.8366337,10.3788054 52.9311431,12.4505895 55.5148515,12.4505895 C56.0616344,12.4505895 56.5865081,12.3578024 57.0742574,12.1872782 L57.0742574,12.1977457 C57.4714182,12.089319 57.8897614,12.0313939 58.3217822,12.0313939 C60.9054905,12.0313939 63,14.1031779 63,16.6588531 C63,19.2145282 60.9054905,21.2863123 58.3217822,21.2863123 C55.7380738,21.2863123 53.6435644,19.2145282 53.6435644,16.6588531 Z M31.4238282,44 C28.3028113,44 25.7727273,41.4973673 25.7727273,38.4102135 C25.7727273,35.3230596 28.3028113,32.820427 31.4238282,32.820427 C34.5448451,32.820427 37.0749291,35.3230596 37.0749291,38.4102135 C37.0749291,41.4973673 34.5448451,44 31.4238282,44 Z" id="Combined-Shape" fill="#42A5F5"></path>
                </g>
            </g>
        </g>
    </g>
</svg>